{
    "asset" : {
        "generator" : "Khronos glTF Blender I/O v1.6.16",
        "version" : "2.0"
    },
    "extensionsUsed" : [
        "KHR_materials_clearcoat"
    ],
    "scene" : 0,
    "scenes" : [
        {
            "name" : "Scene",
            "nodes" : [
                0,
                1,
                2,
                3,
                4,
                5
            ]
        }
    ],
    "nodes" : [
        {
            "name" : "Light",
            "rotation" : [
                0.16907575726509094,
                0.7558803558349609,
                -0.27217137813568115,
                0.570947527885437
            ],
            "translation" : [
                7.454200744628906,
                13.642736434936523,
                6.946144104003906
            ]
        },
        {
            "name" : "Camera",
            "rotation" : [
                0.483536034822464,
                0.33687159419059753,
                -0.20870360732078552,
                0.7804827094078064
            ],
            "translation" : [
                7.358891487121582,
                4.958309173583984,
                6.925790786743164
            ]
        },
        {
            "mesh" : 0,
            "name" : "Cylinder",
            "scale" : [
                1.0057673454284668,
                0.13576734066009521,
                1.0057673454284668
            ],
            "translation" : [
                18.32457160949707,
                0.2862624526023865,
                5.586806297302246
            ]
        },
        {
            "mesh" : 1,
            "name" : "Cylinder.002",
            "scale" : [
                1.0057673454284668,
                0.13576734066009521,
                1.0057673454284668
            ],
            "translation" : [
                20.4697322845459,
                -0.4590044319629669,
                -4.4539794921875
            ]
        },
        {
            "mesh" : 2,
            "name" : "Cylinder.003",
            "scale" : [
                1.0057673454284668,
                0.13576734066009521,
                1.0057673454284668
            ],
            "translation" : [
                20.83589744567871,
                -0.5469871759414673,
                -1.5084009170532227
            ]
        },
        {
            "mesh" : 3,
            "name" : "Cylinder.001",
            "scale" : [
                1.0057673454284668,
                0.13576734066009521,
                1.0057673454284668
            ],
            "translation" : [
                22.425613403320312,
                0.6523385643959045,
                6.079946517944336
            ]
        }
    ],
    "materials" : [
        {
            "doubleSided" : true,
            "extensions" : {
                "KHR_materials_clearcoat" : {
                    "clearcoatFactor" : 0.009999999776482582,
                    "clearcoatRoughnessFactor" : 0.029999999329447746
                }
            },
            "name" : "Material.002",
            "pbrMetallicRoughness" : {
                "baseColorFactor" : [
                    0.9600228071212769,
                    0.9600228071212769,
                    0.9600228071212769,
                    1
                ],
                "metallicFactor" : 0.34285715222358704,
                "roughnessFactor" : 0.49047619104385376
            }
        },
        {
            "alphaCutoff" : 0.5,
            "alphaMode" : "MASK",
            "doubleSided" : true,
            "name" : "Material.001",
            "pbrMetallicRoughness" : {
                "baseColorFactor" : [
                    0,
                    0,
                    0,
                    1
                ],
                "metallicFactor" : 0.21904762089252472,
                "roughnessFactor" : 0.4714285731315613
            }
        }
    ],
    "meshes" : [
        {
            "name" : "Cylinder",
            "primitives" : [
                {
                    "attributes" : {
                        "POSITION" : 0,
                        "NORMAL" : 1,
                        "TEXCOORD_0" : 2
                    },
                    "indices" : 3,
                    "material" : 0
                }
            ]
        },
        {
            "name" : "Cylinder.002",
            "primitives" : [
                {
                    "attributes" : {
                        "POSITION" : 4,
                        "NORMAL" : 5,
                        "TEXCOORD_0" : 6
                    },
                    "indices" : 3,
                    "material" : 1
                }
            ]
        },
        {
            "name" : "Cylinder.003",
            "primitives" : [
                {
                    "attributes" : {
                        "POSITION" : 7,
                        "NORMAL" : 8,
                        "TEXCOORD_0" : 9
                    },
                    "indices" : 3,
                    "material" : 1
                }
            ]
        },
        {
            "name" : "Cylinder.004",
            "primitives" : [
                {
                    "attributes" : {
                        "POSITION" : 10,
                        "NORMAL" : 11,
                        "TEXCOORD_0" : 12
                    },
                    "indices" : 3,
                    "material" : 0
                }
            ]
        }
    ],
    "accessors" : [
        {
            "bufferView" : 0,
            "componentType" : 5126,
            "count" : 1325,
            "max" : [
                1,
                24.420595169067383,
                1
            ],
            "min" : [
                -1,
                -1,
                -1
            ],
            "type" : "VEC3"
        },
        {
            "bufferView" : 1,
            "componentType" : 5126,
            "count" : 1325,
            "type" : "VEC3"
        },
        {
            "bufferView" : 2,
            "componentType" : 5126,
            "count" : 1325,
            "type" : "VEC2"
        },
        {
            "bufferView" : 3,
            "componentType" : 5123,
            "count" : 6948,
            "type" : "SCALAR"
        },
        {
            "bufferView" : 4,
            "componentType" : 5126,
            "count" : 1325,
            "max" : [
                1,
                24.420595169067383,
                1
            ],
            "min" : [
                -1,
                -1,
                -1
            ],
            "type" : "VEC3"
        },
        {
            "bufferView" : 5,
            "componentType" : 5126,
            "count" : 1325,
            "type" : "VEC3"
        },
        {
            "bufferView" : 6,
            "componentType" : 5126,
            "count" : 1325,
            "type" : "VEC2"
        },
        {
            "bufferView" : 7,
            "componentType" : 5126,
            "count" : 1325,
            "max" : [
                1,
                24.420595169067383,
                1
            ],
            "min" : [
                -1,
                -1,
                -1
            ],
            "type" : "VEC3"
        },
        {
            "bufferView" : 8,
            "componentType" : 5126,
            "count" : 1325,
            "type" : "VEC3"
        },
        {
            "bufferView" : 9,
            "componentType" : 5126,
            "count" : 1325,
            "type" : "VEC2"
        },
        {
            "bufferView" : 10,
            "componentType" : 5126,
            "count" : 1325,
            "max" : [
                1,
                24.420595169067383,
                1
            ],
            "min" : [
                -1,
                -1,
                -1
            ],
            "type" : "VEC3"
        },
        {
            "bufferView" : 11,
            "componentType" : 5126,
            "count" : 1325,
            "type" : "VEC3"
        },
        {
            "bufferView" : 12,
            "componentType" : 5126,
            "count" : 1325,
            "type" : "VEC2"
        }
    ],
    "bufferViews" : [
        {
            "buffer" : 0,
            "byteLength" : 15900,
            "byteOffset" : 0
        },
        {
            "buffer" : 0,
            "byteLength" : 15900,
            "byteOffset" : 15900
        },
        {
            "buffer" : 0,
            "byteLength" : 10600,
            "byteOffset" : 31800
        },
        {
            "buffer" : 0,
            "byteLength" : 13896,
            "byteOffset" : 42400
        },
        {
            "buffer" : 0,
            "byteLength" : 15900,
            "byteOffset" : 56296
        },
        {
            "buffer" : 0,
            "byteLength" : 15900,
            "byteOffset" : 72196
        },
        {
            "buffer" : 0,
            "byteLength" : 10600,
            "byteOffset" : 88096
        },
        {
            "buffer" : 0,
            "byteLength" : 15900,
            "byteOffset" : 98696
        },
        {
            "buffer" : 0,
            "byteLength" : 15900,
            "byteOffset" : 114596
        },
        {
            "buffer" : 0,
            "byteLength" : 10600,
            "byteOffset" : 130496
        },
        {
            "buffer" : 0,
            "byteLength" : 15900,
            "byteOffset" : 141096
        },
        {
            "buffer" : 0,
            "byteLength" : 15900,
            "byteOffset" : 156996
        },
        {
            "buffer" : 0,
            "byteLength" : 10600,
            "byteOffset" : 172896
        }
    ],
    "buffers" : [
        {
            "byteLength" : 183496,
            "uri" : "data:application/octet-stream;base64,"
        }
    ]
}
